PathFileType	4	(X/Y/Z)	c:/Users/goper/Files/vsCode/490R/osim_files/A04/A04_Slow_03.trc
DataRate	CameraRate	NumFrames	NumMarkers	Units                	OrigDataRate	OrigDataStartFrame	OrigNumFrames
120.00	120.00	6	36	mm	120.0	518	1380
                Frame#	Time	LPSIS			LASIS			LTH1			LTH2			LTH3			LTH4			LLFE			LMFE			LSH1			LSH2			LSH3			LSH4			LLMAL			LMMAL			LCAL			LMTP5			LTOE			LMTP1			RPSIS			RASIS			RTH1			RTH2			RTH3			RTH4			RLFE			RMFE			RSH1			RSH2			RSH3			RSH4			RLMAL			RMMAL			RCAL			RMTP1			RTOE			RMTP5		
		X1	Y1	Z1	X2	Y2	Z2	X3	Y3	Z3	X4	Y4	Z4	X5	Y5	Z5	X6	Y6	Z6	X7	Y7	Z7	X8	Y8	Z8	X9	Y9	Z9	X10	Y10	Z10	X11	Y11	Z11	X12	Y12	Z12	X13	Y13	Z13	X14	Y14	Z14	X15	Y15	Z15	X16	Y16	Z16	X17	Y17	Z17	X18	Y18	Z18	X19	Y19	Z19	X20	Y20	Z20	X21	Y21	Z21	X22	Y22	Z22	X23	Y23	Z23	X24	Y24	Z24	X25	Y25	Z25	X26	Y26	Z26	X27	Y27	Z27	X28	Y28	Z28	X29	Y29	Z29	X30	Y30	Z30	X31	Y31	Z31	X32	Y32	Z32	X33	Y33	Z33	X34	Y34	Z34	X35	Y35	Z35	X36	Y36	Z36

518	4.30833	1307.20227	1074.89795	294.49655	0.00000	0.00000	0.00000	1056.50854	733.06042	429.13446	1037.01465	693.71735	431.29227	0.00000	0.00000	0.00000	986.15912	712.79620	429.16895	972.60278	561.76978	430.43988	953.04346	553.05566	290.29590	1058.35376	496.38583	428.80048	1076.93506	456.57825	425.89136	1005.48395	463.45837	418.77737	1032.11011	429.26462	415.80759	1250.59558	235.33900	376.75851	1225.42529	222.37445	293.31149	1320.24194	243.75328	314.95706	1179.97986	104.32800	418.74307	1130.40955	84.53130	361.76575	1147.98267	83.53405	315.89691	1308.01746	1062.63770	188.33688	0.00000	0.00000	0.00000	1192.46936	729.39111	68.67857	1182.01917	686.60040	71.87167	1129.49707	734.22241	57.06170	1128.88281	687.94049	63.75191	1126.58484	551.57416	94.81054	1115.41614	549.19794	208.63704	1202.77893	344.97662	104.05627	1201.64514	297.40823	113.27774	1141.57935	337.87631	99.55458	1150.67896	291.42664	105.61168	1195.73560	102.64960	111.73830	1165.70776	113.97368	244.73027	1264.46863	63.37775	192.09299	1040.99402	59.85685	225.33717	1017.27075	79.86861	176.94948	1051.03674	51.82896	105.84446
519	4.31667	1299.98755	1075.24060	294.34283	1078.83875	1036.91113	377.89798	1045.07227	733.51630	428.39859	1026.79517	695.72815	430.74411	0.00000	0.00000	0.00000	975.61975	715.52539	428.31619	959.62286	565.21680	429.32324	941.86401	556.80835	288.77271	1043.21655	496.62973	428.44974	1060.41821	456.24670	425.64832	989.95996	466.28250	418.55438	1014.68298	430.37735	415.23459	1226.65564	228.86856	377.82114	1200.40112	218.09293	294.49487	1296.83154	234.84825	316.57739	1150.79883	100.33143	419.18353	1098.67981	82.82568	362.21552	1119.15222	80.83389	316.00357	1300.81921	1062.99487	188.12331	0.00000	0.00000	0.00000	1186.67810	729.26392	68.97852	1177.96875	686.99329	71.91293	1125.08276	734.21912	57.14617	1124.87097	688.18378	63.70781	1124.01257	551.36920	95.08029	1112.98035	548.83765	208.81123	1201.44934	345.17282	104.28806	1200.59546	297.69000	113.40472	1139.94202	337.73883	99.98587	1149.69153	291.49030	105.68964	1195.40735	102.85562	111.82378	1165.36694	113.62099	244.97598	1264.33105	63.66323	192.10875	1040.87183	59.64355	225.40497	1016.93256	79.74857	176.92039	1050.96851	51.75506	105.90075
520	4.32500	1292.80798	1075.52222	294.14215	0.00000	0.00000	0.00000	1035.65271	735.04449	428.22830	1016.08356	697.35809	430.27780	0.00000	0.00000	0.00000	964.58765	717.51013	427.65674	947.61206	567.93390	428.43643	929.10730	561.07526	289.34146	1028.41956	496.54343	428.10211	1043.73010	455.24503	425.42746	973.83820	467.82846	417.65784	997.21118	431.24298	414.09088	1201.73779	222.21330	378.92880	1176.07703	211.93065	295.54681	1272.93152	225.54558	318.25586	1121.45312	96.71084	419.77267	1070.73035	80.18451	361.65784	1089.42883	78.21952	316.69235	1293.47156	1063.12329	188.00569	1068.40381	1033.66724	92.56080	1182.09949	729.76422	68.99543	1173.77441	687.36456	71.91612	1120.44934	734.11377	57.27947	1120.77673	688.45410	63.67651	1121.49426	551.19391	95.27142	1110.15137	548.36700	209.09131	1200.21411	345.44656	104.42471	1199.57605	297.88718	113.55322	1138.80164	337.74030	100.13374	1148.69153	291.58691	105.80670	1195.06213	103.07053	111.90824	0.00000	0.00000	0.00000	1264.17859	63.89831	192.14993	1040.36816	59.32385	225.61540	1016.63226	79.15771	177.60736	1050.92102	51.72680	105.92970
521	4.33333	1285.50964	1075.54749	294.06390	1064.35242	1037.86633	377.77512	1026.66797	736.85309	428.06659	1006.78247	698.74097	429.29141	0.00000	0.00000	0.00000	955.37781	719.68231	426.33450	936.59979	570.17499	426.63522	918.67157	564.64197	288.17599	1013.78705	496.21091	427.71704	1027.61621	454.37888	425.09836	959.47565	470.99631	419.27542	980.50793	432.23181	414.01074	1176.84949	215.37930	379.83759	1151.50012	205.72034	296.42258	1248.98889	216.41339	319.74695	1091.30957	92.95855	419.87848	1040.70996	78.52784	361.53891	1059.75549	75.11623	315.36328	1286.18860	1063.22461	187.90318	1058.94250	1032.10205	94.18193	1177.24146	730.12390	69.11438	1169.61841	687.72729	71.87876	1115.81787	734.05865	57.42523	1116.62085	688.74200	63.62265	1119.00024	551.03973	95.44098	1108.03809	548.18317	209.23085	1199.00757	345.65573	104.53439	1198.50439	298.08569	113.66100	1137.56067	337.74448	100.24790	1147.66162	291.61444	105.91870	1194.78955	103.24197	111.97561	0.00000	0.00000	0.00000	1263.94653	63.69994	191.91348	1040.67603	59.07432	225.63908	1016.50336	78.90665	177.70407	1050.89539	51.67397	105.93817
522	4.34167	1278.22778	1075.51978	293.98151	0.00000	0.00000	0.00000	1017.16589	737.81824	427.75894	995.34113	698.59253	429.75925	0.00000	0.00000	0.00000	945.12872	721.19318	425.62143	925.47186	573.12848	426.26874	908.11963	567.64703	287.22003	999.57129	495.67065	427.28113	1011.79260	453.40915	424.91586	944.70673	471.95178	418.53787	963.45502	432.87085	413.23093	1151.39905	208.28764	380.73529	1126.44812	199.34964	297.09381	1223.87817	206.23639	321.29138	1061.22729	89.73057	420.31039	1010.36023	77.22112	361.32782	1029.72778	73.00843	315.29883	1278.80518	1063.16431	187.83167	1051.61548	1031.74548	94.07986	1172.34912	730.28217	69.66152	1165.34290	688.06525	71.81100	1111.12280	733.94849	57.53783	1112.63110	685.96252	64.90367	1116.45947	550.80096	95.69785	1105.65320	547.91498	209.36757	1197.80737	345.81583	104.68098	1197.47400	298.35187	113.79976	1136.41406	337.70886	100.35740	1146.98669	291.74976	105.71945	1194.54456	103.43605	112.03159	1164.54517	113.77063	245.06380	1263.86267	64.00950	191.93239	1040.57068	58.88643	225.68178	1016.22906	79.23045	177.26471	1050.81006	51.57978	105.98045
523	4.35000	1270.88245	1075.34521	293.93253	0.00000	0.00000	0.00000	1007.23737	737.69611	427.26175	985.78967	699.44250	429.17917	0.00000	0.00000	0.00000	936.23871	722.95764	424.33939	914.28735	574.82977	424.82712	898.38513	570.31226	286.03842	985.70935	494.79092	426.84445	996.51941	452.30649	424.56580	929.20856	472.34433	417.68533	946.68927	433.37878	412.11826	1125.95032	201.31343	381.47186	1101.75098	193.58841	297.81964	1198.62183	196.49852	322.81546	1030.13855	86.44298	420.06137	979.80438	76.24059	361.07239	999.27570	71.56432	315.58264	1271.41223	1062.96753	187.79042	0.00000	0.00000	0.00000	1167.53613	730.61365	69.71587	1161.14453	688.40247	71.77196	1106.47827	733.79834	57.67287	1108.35999	685.80121	65.11749	1114.02722	550.61835	95.84556	1103.39111	547.56781	209.63464	1196.61206	346.08942	104.82893	1196.44263	298.49966	113.92401	1135.26697	337.72452	100.43300	1145.65430	291.60883	106.10870	1194.23975	103.58969	112.09386	1165.13086	114.99199	244.97713	1263.74341	64.29380	191.92163	0.00000	0.00000	0.00000	1016.30121	78.75352	177.57765	1050.77673	51.51435	106.01038
